<svg width="84" height="30" viewBox="0 0 84 30" fill="none" xmlns="http://www.w3.org/2000/svg">
                        <path d="M2 13C0.89543 13 0 13.8954 0 15C0 16.1046 0.89543 17 2 17V13ZM83.4142 16.4142C84.1953 15.6332 84.1953 14.3668 83.4142 13.5858L70.6863 0.857864C69.9052 0.0768156 68.6389 0.0768156 67.8579 0.857864C67.0768 1.63891 67.0768 2.90524 67.8579 3.68629L79.1716 15L67.8579 26.3137C67.0768 27.0948 67.0768 28.3611 67.8579 29.1421C68.6389 29.9232 69.9052 29.9232 70.6863 29.1421L83.4142 16.4142ZM2 17H82V13H2V17Z" fill="black"/>
                    </svg>