<svg width="84" height="31" viewBox="0 0 84 31" fill="none" xmlns="http://www.w3.org/2000/svg">
<path d="M82 17.5C83.1046 17.5 84 16.6046 84 15.5C84 14.3954 83.1046 13.5 82 13.5L82 17.5ZM0.585785 14.0858C-0.195259 14.8668 -0.195259 16.1332 0.585785 16.9142L13.3137 29.6421C14.0948 30.4232 15.3611 30.4232 16.1421 29.6421C16.9232 28.8611 16.9232 27.5948 16.1421 26.8137L4.82843 15.5L16.1421 4.1863C16.9232 3.40525 16.9232 2.13892 16.1421 1.35787C15.3611 0.576821 14.0948 0.576822 13.3137 1.35787L0.585785 14.0858ZM82 13.5L2 13.5L2 17.5L82 17.5L82 13.5Z" fill="black"/>
</svg>
