<?xml version="1.0" encoding="UTF-8"?>
<svg id="_Слой_1" data-name=" Слой 1" xmlns="http://www.w3.org/2000/svg" viewBox="0 0 340.16 81.48">
  <defs>
    <style>
      .cls-1 {
        fill: #fff;
        stroke-width: 0px;
      }
    </style>
  </defs>
  <path class="cls-1" d="M56.18,66.85h-28.58l-3.85,12.09H4.52L30.68,2h22.42l26.16,76.94h-19.24l-3.85-12.09h.01ZM50.9,50.36l-9.01-28.25-9.01,28.25h18.02Z"/>
  <path class="cls-1" d="M157.81,23.98v30.01c0,7.8-4.18,11.32-10.22,11.32-5.16,0-9.35-3.08-9.53-9.59v-10.52c0-14.84-9.45-22.75-20.55-22.75-7.26,0-12.75,2.64-15.72,6.7v-5.17h-16.49v54.96h16.49v-30.01c0-7.8,4.17-11.32,10.22-11.32,5.16,0,9.35,3.07,9.53,9.59v10.52c0,14.84,9.45,22.75,20.55,22.75,7.26,0,12.75-2.64,15.72-6.71v5.17h16.49V23.97h-16.49Z"/>
  <path class="cls-1" d="M268.63,45.2v33.74h-16.49v-32.31c0-5.49-2.64-9.01-7.91-9.01s-8.58,3.85-8.58,10.33v30.99h-16.49v-32.31c0-5.49-2.64-9.01-7.91-9.01s-8.57,3.85-8.57,10.33v30.99h-16.49V23.98h16.49v5.05c2.53-3.73,7.36-6.59,14.73-6.59,6.49,0,11.32,2.64,14.4,7.25,3.08-4.39,8.13-7.25,15.94-7.25,12.64,0,20.88,9.01,20.88,22.75h0Z"/>
  <path class="cls-1" d="M277,51.46c0-16.38,12.97-29.02,29.13-29.02s29.13,12.64,29.13,29.02-12.97,29.02-29.13,29.02-29.13-12.64-29.13-29.02ZM318.77,51.46c0-7.8-5.49-12.97-12.64-12.97s-12.64,5.17-12.64,12.97,5.5,12.97,12.64,12.97,12.64-5.17,12.64-12.97Z"/>
</svg>