<?xml version="1.0" encoding="UTF-8"?>
<svg id="_Слой_1" data-name="Слой 1" xmlns="http://www.w3.org/2000/svg" viewBox="0 0 480.42 480.42">
  <defs>
    <style>
      .cls-1 {
        fill: #fff;
        stroke-width: 0px;
      }
    </style>
  </defs>
  <g>
    <path class="cls-1" d="M241.81,188.63c-5.04.06-10.13.78-15.07,1.77-6.63,1.33-13.03,3.57-19.1,6.55-1.94.95-3.58,3.35-4.14,5.38-.59,2.15-.33,5.02.91,6.94s3.08,3.61,5.38,4.14c2.46.56,4.67.21,6.94-.91,1.09-.54,2.2-1.04,3.31-1.52l-2.15.91c6.03-2.51,12.4-4.13,18.86-5l-2.39.32c2.47-.32,4.96-.55,7.45-.58,4.71-.05,9.22-4.1,9-9s-3.96-9.06-9-9h0Z"/>
    <path class="cls-1" d="M240.46,417.33c-.64,0-1.28-.03-1.92-.09-2.1-.19,1.79.33.38.06s-2.84-.58-4.24-.98-2.65-.82-3.96-1.29c-.67-.24-1.33-.5-1.99-.76-.37-.15-.73-.32-1.1-.45.86.3,1.8.77.4.16-4.82-2.12-9.49-4.6-14.01-7.29-2.98-1.76-5.28-3.45-8.81-4.01-4.42-.7-8.87-1.22-13.3-1.87-4.65-.69-9.29-1.51-13.84-2.71-2.4-.64-4.78-1.38-7.1-2.26-.56-.21-1.11-.44-1.66-.65-1.05-.4,2.29,1.01.87.36-.24-.11-.49-.22-.73-.33-1.22-.56-2.42-1.15-3.6-1.8-1.08-.59-2.13-1.21-3.16-1.88-.52-.34-1.04-.68-1.55-1.04-.62-.43-2.77-2.26-.37-.22-2.07-1.76-4.09-3.5-5.92-5.51-.46-.51-.92-1.03-1.36-1.55-.2-.24-.39-.48-.59-.72-1.1-1.31,1.07,1.49.39.52-.9-1.27-1.81-2.51-2.64-3.82s-1.6-2.65-2.33-4.02c-.42-.8-.83-1.6-1.22-2.41-.34-.71-.61-2-1.16-2.55,1,.99.57,1.38.14.28-.18-.46-.36-.91-.53-1.37-.28-.75-.56-1.51-.81-2.27-.62-1.85-1.14-3.73-1.55-5.63-.18-.83-.34-1.66-.47-2.49-.13-.77.06-1.83.04.47,0-.34-.09-.75-.13-1.09-.18-1.78-.27-3.57-.27-5.36,0-1.56.08-3.12.23-4.68.03-.34.07-.68.11-1.02.15-1.5-.1.77-.13.88.21-.89.29-1.84.46-2.74.58-2.98,1.4-5.9,2.43-8.76.27-.75.57-1.49.85-2.24.21-.55.72-1.49-.36.84.17-.36.31-.72.47-1.08.6-1.34,1.24-2.66,1.92-3.96,1.29-2.48,2.72-4.88,4.27-7.2.69-1.03,1.39-2.05,2.12-3.05.35-.48.71-.96,1.06-1.43.4-.54,1.2-1.46-.58.75.24-.29.47-.59.7-.89,1.32-1.65,2.7-3.26,4.13-4.82,2.53-2.76,6.12-5.34,7.99-8.6,2.33-4.07,2.66-9.29,3.58-13.82.8-3.92,1.62-7.83,2.48-11.74,2.37-10.73,4.97-21.46,8.38-31.92.98-3,2.06-5.96,3.24-8.89.52-1.3-1.11,2.54-.49,1.16.12-.28.24-.56.37-.83.21-.48.43-.95.66-1.42.36-.75.74-1.49,1.15-2.22.31-.55.63-1.09.99-1.62.13-.19.27-.37.4-.56.55-.82-2.03,2.36-.98,1.28.19-.19.39-.39.57-.6.8-.92-2.47,1.66-1.47,1.13.89-.47-2.52,1.03-2.03.84,3.02-1.12,5.4-3.05,6.29-6.29s-.14-6.32-2.31-8.76c-3.49-3.91-6.87-7.93-10.11-12.05-.25-.32-1.7-2.08-.23-.28-.42-.51-.8-1.05-1.2-1.58-.66-.87-1.31-1.75-1.96-2.63-1.53-2.08-3.02-4.19-4.47-6.32-5.17-7.57-9.89-15.45-14.11-23.59-2.02-3.9-3.93-7.86-5.72-11.87-.45-1.02-.9-2.04-1.34-3.06-.61-1.4.21.47.26.62-.18-.51-.42-1.02-.63-1.52-.82-2-1.62-4.01-2.38-6.04-2.73-7.23-5.08-14.61-7.04-22.09-1.77-6.73-3.22-13.54-4.35-20.4-.25-1.54-.49-3.08-.71-4.62-.06-.41-.12-.82-.17-1.24-.19-1.39.17,1.2.16,1.17-.3-.81-.25-1.96-.35-2.82-.34-2.88-.63-5.76-.85-8.64-.71-9.09-.88-18.24-.34-27.35.17-2.96.42-5.91.78-8.86.03-.25.06-.49.09-.74.18-1.45-.39,2.76-.23,1.7.05-.33.09-.67.14-1,.04-.27.08-.54.13-.81-5.01,1.32-10.03,2.65-15.04,3.97,13.04,10.37,24.99,22.08,35.53,34.99,1.14,1.39,2.25,2.8,3.36,4.21.79,1-1.37-1.8-.21-.27.28.37.56.74.85,1.11.61.81,1.22,1.63,1.83,2.45,2.2,2.99,4.33,6.04,6.39,9.14,3.87,5.82,7.47,11.82,10.81,17.96,3.14,5.78,6.04,11.69,8.7,17.7.31.7.62,1.4.92,2.11.12.28.24.56.36.84.7,1.62-.87-2.1-.2-.48.57,1.37,1.13,2.75,1.68,4.13,1.11,2.8,2.17,5.62,3.17,8.45,3.35,9.44,6.13,19.08,8.3,28.85.95,4.26,1.77,8.55,2.47,12.85.14.87.27,1.74.4,2.61.1.71.22,1.41.3,2.12l-.14-1.06c.05.42.11.84.16,1.26.14,1.11.26,2.22.37,3.33.2,1.97.39,3.95.46,5.93.16,4.7,4.02,9.22,9,9s9.17-3.96,9-9c-.33-9.53-2.02-19.15-3.95-28.48-2.01-9.71-4.62-19.29-7.8-28.67-9.03-26.71-22.34-51.65-39.62-73.93-11.49-14.82-24.74-28.19-39.41-39.86-2.59-2.06-5.39-3.24-8.76-2.31-2.81.77-5.75,3.28-6.29,6.29-2.26,12.57-2.27,25.71-1.47,38.4,1.9,30.33,9.76,59.98,22.98,87.34,9.81,20.3,22.75,38.99,37.75,55.8l3.97-15.04c-7.47,2.78-10.46,11.81-12.99,18.59-3.28,8.77-5.69,17.88-7.9,26.97-1.81,7.42-3.43,14.89-4.95,22.38-.42,2.05-.82,4.1-1.22,6.15-.23,1.17-.59,2.4-.69,3.59-.11,1.3.23-.35.41-.66-.86,1.57,1.58-1.39.09-.11-1.01.87-1.95,1.82-2.89,2.77-17.9,17.98-29.91,43.33-23.92,68.99,1.75,7.48,4.98,14.94,9.09,21.44,3.49,5.53,7.8,10.65,12.94,14.72,9.16,7.25,19.87,11.56,31.28,13.83,4.73.94,9.52,1.58,14.3,2.22,2.17.29,4.33.58,6.49.92.54.09,1.09.19,1.63.27,1.41.18.03.2-1.15-.72.25.2.55.36.82.53,9.03,5.74,19,11.11,29.38,13.85,3.14.83,6.45,1.39,9.7,1.41,4.71.04,9.22-4.17,9-9s-3.95-8.96-9-9h0Z"/>
  </g>
  <g>
    <path class="cls-1" d="M241.81,206.63c2.26-.05,4.51.16,6.75.46l-2.39-.32c6.26.87,12.39,2.58,18.21,5.04l-2.15-.91c1.17.5,2.32,1.03,3.46,1.59,2.19,1.08,4.52,1.57,6.94.91,2.09-.57,4.35-2.19,5.38-4.14,2.14-4.05,1.28-10.1-3.23-12.31-5.93-2.91-12.17-5.22-18.63-6.62-4.65-1.01-9.54-1.8-14.32-1.7s-9.22,4.06-9,9,3.96,9.11,9,9h0Z"/>
    <path class="cls-1" d="M241.81,206.63c4.71,0,9.22-4.14,9-9s-3.95-9-9-9c-4.71,0-9.22,4.14-9,9s3.95,9,9,9h0Z"/>
    <path class="cls-1" d="M239.89,206.68c4.71,0,9.22-4.14,9-9s-3.95-9-9-9c-4.71,0-9.22,4.14-9,9s3.95,9,9,9h0Z"/>
    <path class="cls-1" d="M240.46,435.33c5.98,0,11.93-1.82,17.44-4,5.88-2.32,11.61-5,17.18-7.99,1.67-.9,3.33-1.82,4.98-2.77.43-.25.87-.49,1.3-.76.13-.08.27-.15.39-.23.83-.56-2.6.78-1.54.74,2.14-.08,4.38-.69,6.51-.99,2.31-.32,4.62-.62,6.93-.95,10.72-1.52,21.24-3.85,30.94-8.87,11.7-6.06,20.96-16.3,26.52-28.18,3.72-7.95,6.22-16.07,6.84-24.86.51-7.22-.47-14.69-2.54-21.61-3.59-12-10.29-22.77-18.43-32.19-2.22-2.57-4.59-5-7.07-7.32-.51-.48-1.32-1.71.05.3-.9-1.32.44.66.27.72,0,0-.38-1.84-.4-1.96-.45-2.32-.9-4.64-1.37-6.95-.8-3.98-1.63-7.95-2.5-11.91-2.47-11.27-5.16-22.54-8.78-33.51-1.83-5.54-3.82-11.24-6.74-16.31-1.4-2.43-3.28-5.21-5.84-6.58-.71-.38-1.51-.68-2.25-.96l3.97,15.04c25.11-28.12,43.88-61.59,53.51-98.12,5.89-22.35,8.7-45.92,7.32-69.03-.29-4.8-.71-9.65-1.56-14.39-.54-3-3.47-5.51-6.29-6.29-3.37-.93-6.16.25-8.76,2.31-25.21,20.06-46.29,45.32-61.61,73.67-11.14,20.61-19.53,42.88-24.58,65.77-2.27,10.3-4.23,20.98-4.6,31.51-.16,4.71,4.26,9.21,9,9,5.02-.22,8.83-3.95,9-9,.06-1.66.21-3.32.36-4.98.17-1.75.38-3.48.59-5.23.16-1.39-.34,2.33,0,.06.07-.48.14-.95.21-1.43s.14-.93.21-1.4c.57-3.69,1.25-7.36,2.01-11.02,1.97-9.47,4.52-18.82,7.61-27.99,1.87-5.57,3.96-11.06,6.21-16.49.64-1.55-.76,1.77-.29.69.15-.35.3-.7.45-1.05.3-.7.61-1.41.92-2.11.63-1.42,1.27-2.84,1.93-4.25,1.42-3.05,2.9-6.08,4.45-9.07,3.15-6.1,6.57-12.07,10.24-17.88,1.95-3.09,3.98-6.14,6.08-9.14,1.05-1.5,2.11-2.98,3.2-4.46.49-.67.99-1.34,1.49-2,.28-.37.56-.74.84-1.11.23-.3.45-.59.68-.89l-.72.93c.79-.69,1.44-1.84,2.1-2.66.71-.89,1.43-1.77,2.16-2.65,1.35-1.63,2.72-3.25,4.11-4.84,2.99-3.43,6.08-6.76,9.27-10.01,6.74-6.85,13.91-13.27,21.43-19.25-5.01-1.32-10.03-2.65-15.04-3.97.04.21.08.43.1.64.03.25.07.5.11.74.3,2.02-.36-2.84-.15-1.16.29,2.34.53,4.69.7,7.04.64,8.59.62,17.23.1,25.82-.17,2.78-.39,5.55-.66,8.32-.14,1.44-.3,2.87-.47,4.31-.1.8-.2,1.61-.3,2.41-.08.63-.25,1.71.16-1.17-.08.55-.15,1.1-.23,1.65-.96,6.69-2.22,13.34-3.78,19.91-1.74,7.34-3.86,14.6-6.34,21.73-1.35,3.87-2.8,7.71-4.36,11.5-.17.42-.35.84-.53,1.27-.49,1.18.92-2.13.15-.37-.44,1.02-.88,2.04-1.34,3.06-.89,1.98-1.8,3.95-2.74,5.91-4.44,9.21-9.51,18.12-15.15,26.65-3.02,4.56-6.11,9.2-9.58,13.43,1.47-1.8.03-.04-.23.28-.41.53-.83,1.05-1.25,1.58-.99,1.23-1.98,2.46-3,3.67-1.91,2.3-3.87,4.57-5.87,6.8-2.17,2.43-3.21,5.52-2.31,8.76s3.27,5.16,6.29,6.29c-2.62-.98-2.76-1.3-2.02-.84.81.51-2.21-2.08-1.45-1.11.17.21.39.42.58.62,1.01,1.05-1.61-2.23-1-1.3.14.21.29.4.42.61.84,1.26,1.54,2.61,2.19,3.97.23.48.45.97.67,1.45.11.25.22.51.33.76.25.56-1.12-2.71-.45-1.06.55,1.35,1.07,2.71,1.57,4.08,3.28,9.06,5.72,18.43,7.95,27.79,1.77,7.43,3.37,14.9,4.87,22.39,1.03,5.12,1.43,10.49,5.21,14.47.94.99,2,1.87,2.97,2.84,1.28,1.27,2.53,2.59,3.73,3.93.72.8,1.42,1.62,2.11,2.44.35.42.69.84,1.04,1.26.16.19.31.39.47.58,1.06,1.33-.11-.46-.47-.62.75.32,1.78,2.4,2.25,3.06.77,1.09,1.51,2.2,2.23,3.33,1.52,2.39,2.92,4.87,4.17,7.41.34.7.67,1.4.99,2.11.13.29.25.57.38.86.7,1.58-.67-1.75-.27-.62.52,1.43,1.1,2.84,1.57,4.29.98,3,1.66,6.05,2.19,9.16.3,1.8-.21-1.88-.08-.63.04.43.1.85.14,1.27.07.77.13,1.55.16,2.32.08,1.67.08,3.34,0,5.02-.05.9-.11,1.8-.21,2.7-.04.36-.09.73-.13,1.09.22-2.53.15-1.12.04-.47-.29,1.78-.68,3.55-1.16,5.3s-1.11,3.61-1.78,5.38c-.24.62-1.46,3.23-.29.81-.41.84-.75,1.71-1.16,2.55-1.41,2.96-3.04,5.81-4.91,8.5-.46.66-.97,1.28-1.42,1.94.05-.07,1.44-1.79.53-.71-.25.3-.49.6-.74.9-.93,1.09-1.9,2.15-2.91,3.16s-2,1.9-3.06,2.79c-.59.49-2.48,1.76,0,.05-.57.4-1.12.83-1.7,1.23-2.13,1.47-4.37,2.78-6.69,3.91-.6.29-1.21.58-1.81.85-1.96.88,1.87-.73.13-.05-1.17.45-2.34.9-3.52,1.3-4.64,1.57-9.44,2.64-14.27,3.47-4.55.78-9.14,1.35-13.71,1.98-2.08.29-4.26.47-6.3.98-1.38.34-2.58,1.17-3.79,1.88-3.74,2.17-7.56,4.2-11.45,6.09-1.28.62-2.56,1.22-3.86,1.8-.63.28-1.26.56-1.89.83-1.3.57.82-.35.88-.37-.43.16-.85.35-1.28.52-2.62,1.04-5.28,1.99-8.01,2.72-1.24.33-2.48.58-3.74.81-1.86.34,2.48-.17.38-.07-.57.03-1.14.07-1.71.07-4.71,0-9.22,4.14-9,9s3.95,9,9,9h0Z"/>
    <path class="cls-1" d="M240.46,435.33c4.71,0,9.22-4.14,9-9s-3.95-9-9-9c-4.71,0-9.22,4.14-9,9s3.95,9,9,9h0Z"/>
  </g>
</svg>