<?xml version="1.0" encoding="UTF-8"?>
<svg id="_Слой_1" data-name="Слой 1" xmlns="http://www.w3.org/2000/svg" viewBox="0 0 480.42 480.42">
  <defs>
    <style>
      .cls-1 {
        fill: #fff;
        stroke-width: 0px;
      }
    </style>
  </defs>
  <path class="cls-1" d="M350.44,71.84c-15.96-5.16-32.97-6.79-49.46-3.34-13.49,2.83-25.69,9.37-36.4,17.88-8.82,7.01-16.26,15.64-22.67,24.87-2.36,3.41-4.56,6.93-6.59,10.55-.19.34-.54.77-.63,1.14.32-1.3,2.51-2.49,3.63-2.84,2.33-.71,4.78-.02,6.42,1.64,1.75,1.77.9,1.12.41.25-.26-.46-.51-.92-.78-1.37-.98-1.71-2-3.4-3.06-5.06-12.93-20.34-31.35-37.67-54.65-45.13-15.03-4.81-31.18-4.75-46.49-1.39s-29.02,9.65-41.06,19.05c-18.08,14.1-29.05,35.49-33.33,57.75-3.44,17.87-3.36,36.06-.72,54.02.51,3.46.98,7.09,2.09,10.42,2.7,8.14,6.55,16.05,10.67,23.55,12.8,23.3,29.63,44.32,47.26,64.12,17.51,19.66,35.66,38.77,53.87,57.78,15.54,16.23,31.2,32.35,46.93,48.39,2.08,2.12,4.16,4.24,6.24,6.35-.88-2.12-1.76-4.24-2.64-6.36,0,8.09,9.95,11.91,16.32,8.21,1.48-.86,2.58-2.02,3.76-3.21,1.47-1.5,2.95-3,4.42-4.5,4.1-4.18,8.19-8.36,12.28-12.56,11.28-11.56,22.51-23.17,33.69-34.83,12.44-12.98,24.81-26.02,37.02-39.2,10.11-10.92,20.19-21.9,29.76-33.3,12.57-14.98,24.33-30.96,34-47.98,3.14-5.53,6.03-11.2,8.56-17.04,1.46-3.37,3.24-6.88,4.21-10.45,1.94-7.12,2.72-14.7,3.31-22.03.99-12.3.47-24.6-1.41-36.8-2.16-14.01-6.77-27.91-14.28-39.98-8.8-14.15-21.53-25.66-36.54-32.89-4.58-2.21-9.33-4.13-14.17-5.72-4.48-1.47-10.03,1.71-11.07,6.29-1.13,4.95,1.49,9.5,6.29,11.07,2.16.71,4.3,1.48,6.42,2.33.69.28,2.54,1.15-.24-.11.43.2.88.38,1.31.57,1.04.47,2.07.95,3.1,1.45,3.61,1.78,7.1,3.81,10.42,6.08.76.52,1.51,1.05,2.24,1.6.38.28.76.64,1.16.87.06.03-1.97-1.55-.97-.74.23.19.47.37.7.56,1.42,1.15,2.8,2.35,4.14,3.59,2.67,2.49,5.15,5.16,7.44,8,.28.35.54.71.83,1.05.19.22-1.44-1.89-.9-1.16.13.18.27.35.4.53.56.75,1.11,1.51,1.65,2.28.97,1.39,1.89,2.81,2.76,4.26,1.78,2.94,3.38,5.99,4.8,9.12.37.83,1.52,3.67.17.33.32.78.64,1.56.95,2.35.61,1.56,1.17,3.15,1.7,4.74,1.03,3.14,1.92,6.33,2.66,9.55s1.3,6.21,1.77,9.35c.05.34.1.69.15,1.03.27,1.84-.29-2.26-.12-.93.1.78.19,1.55.28,2.33.17,1.53.32,3.06.44,4.6.44,5.67.55,11.37.35,17.05-.16,4.72-.53,9.44-1.11,14.13-.07.55-.32,2.46-.03.31s.02-.15-.07.41c-.12.85-.26,1.7-.4,2.55-.24,1.42-.5,2.84-.79,4.25-.38,1.83-.84,3.56-1.53,5.29-.36.9-.72,1.8-1.09,2.69-.2.48-.4.95-.59,1.43,1.5-3.6.45-1.08.08-.22-1.09,2.49-2.23,4.96-3.44,7.4-3.42,6.91-7.31,13.59-11.46,20.09-2.78,4.35-5.68,8.61-8.67,12.81-1.75,2.45-3.52,4.88-5.33,7.29-.9,1.21-1.81,2.41-2.73,3.61-.25.33-.5.65-.75.98-.75.98,1.02-1.31.26-.33-.59.76-1.18,1.52-1.78,2.27-8.14,10.36-17.02,20.16-25.89,29.9-11.52,12.65-23.23,25.11-35.02,37.5s-23.27,24.32-34.99,36.39c-8.4,8.65-16.82,17.27-25.26,25.87-.62.63-1.25,1.27-1.87,1.9-.29.3-.6.59-.88.89-.13.14-.3.26-.41.41-.38.55-22.26,9.18,2.34-.95,2.83-1.16,3.87-2.15,7.02.95.88,2.12,1.76,4.24,2.64,6.36,0-4.98-5.13-8.9-8.41-12.25-2.97-3.02-5.93-6.05-8.89-9.08-7.92-8.11-15.82-16.24-23.7-24.39-18.59-19.25-37.09-38.6-55.2-58.3-7.59-8.26-15.13-16.58-22.43-25.11-2.98-3.49-5.91-7.02-8.74-10.63-.39-.5-.79-1.01-1.18-1.51-.28-.36-1.68-2.04-.13-.16-.78-.94-1.49-1.94-2.22-2.91-1.4-1.85-2.79-3.71-4.16-5.59-2.56-3.51-5.07-7.05-7.5-10.65-6.52-9.66-12.58-19.7-17.36-30.34-.39-.87-.77-1.75-1.15-2.62,1.61,3.72.2.46-.17-.46-.58-1.45-1.16-2.9-1.67-4.37-.38-1.09-.63-2.21-.87-3.34-.48-2.2-.86-4.43-1.2-6.66-.1-.63-.19-1.27-.28-1.91-.22-1.56.39,3,.15,1.11-.06-.45-.11-.89-.17-1.34-.21-1.72-.39-3.45-.54-5.18-.72-8.28-.83-16.62-.22-24.91.17-2.36.4-4.71.69-7.05.04-.29.08-.58.11-.88-.4,3.37-.27,1.97-.16,1.22.09-.59.17-1.18.26-1.76.18-1.19.38-2.37.6-3.55.91-4.94,2.13-9.83,3.7-14.6.39-1.19.81-2.38,1.24-3.56.22-.59.45-1.18.68-1.77.32-.81,1.53-3.5.05-.2,1.05-2.34,2.1-4.67,3.3-6.93,1.27-2.39,2.66-4.73,4.15-6.98.73-1.1,1.49-2.18,2.27-3.24.45-.61,1.91-2.42-.2.23.49-.61.97-1.23,1.47-1.83,1.81-2.19,3.75-4.28,5.79-6.26,1.01-.97,2.04-1.92,3.1-2.84.45-.39.9-.77,1.35-1.15.64-.53,3.2-2.46.42-.38,5.01-3.74,10.31-6.97,15.99-9.59.74-.34,1.49-.66,2.23-.99-3.04,1.38-.19.09.54-.2,1.72-.68,3.47-1.31,5.22-1.89,3.99-1.32,8.05-2.42,12.16-3.26,1.94-.39,3.89-.68,5.84-1-3.25.53.15,0,.92-.07,1.08-.11,2.16-.2,3.25-.26,3.54-.22,7.1-.21,10.64.05.85.06,1.7.14,2.54.23.42.04.83.1,1.25.14,1.69.19-2.41-.36-.74-.1s3.49.58,5.22.96c3.08.68,6.11,1.56,9.07,2.63.72.26,1.44.53,2.15.82.35.14.7.29,1.06.43-2.84-1.12-1.39-.59-.76-.31,1.49.65,2.95,1.35,4.39,2.09,2.6,1.34,5.12,2.83,7.55,4.44,1.19.79,2.36,1.61,3.51,2.46.65.48,2.82,2.23.15.09.55.44,1.1.87,1.64,1.31,2.21,1.81,4.33,3.72,6.37,5.71,1.88,1.84,3.68,3.75,5.42,5.72.84.95,1.66,1.91,2.46,2.89.39.48.78.96,1.17,1.44.19.24.38.48.57.72,1.19,1.51-1.31-1.72-.48-.62,2.71,3.61,5.27,7.31,7.6,11.17.96,1.58,1.83,3.22,2.77,4.81,4.61,7.79,15.69,7.79,20.3,0,2.06-3.49,4.05-6.99,6.32-10.35,1.3-1.92,2.66-3.78,4.05-5.64.84-1.12-1.54,1.97-.67.86.19-.24.38-.48.57-.72.38-.48.77-.97,1.16-1.44.87-1.06,1.75-2.11,2.66-3.13,3.62-4.11,7.55-7.96,11.79-11.44.53-.44,1.14-.84,1.64-1.31.06-.06-2.01,1.53-.99.76.28-.21.56-.43.85-.64,1.24-.92,2.51-1.81,3.8-2.67,2.54-1.68,5.17-3.23,7.88-4.61,1.22-.62,2.46-1.22,3.71-1.77.35-.15.69-.3,1.04-.45-2.8,1.25-1.38.58-.75.33.83-.33,1.66-.65,2.51-.96,3.09-1.12,6.25-2.02,9.46-2.72,1.46-.32,2.94-.59,4.42-.81.69-.11,2.34-.25-.75.09.42-.05.83-.1,1.25-.15.98-.11,1.97-.2,2.96-.27,3.62-.26,7.25-.27,10.87-.04,1.8.12,3.59.36,5.38.51-3.28-.29.19.04.97.17.98.16,1.96.34,2.94.53,4.14.82,8.23,1.92,12.24,3.22,4.48,1.45,10.02-1.69,11.07-6.29,1.12-4.93-1.49-9.52-6.29-11.07Z"/>
</svg>