<?xml version="1.0" encoding="UTF-8"?>
<svg id="_Слой_1" data-name="Слой 1" xmlns="http://www.w3.org/2000/svg" viewBox="0 0 480.42 480.42">
  <defs>
    <style>
      .cls-1 {
        fill: #fff;
        stroke-width: 0px;
      }
    </style>
  </defs>
  <path class="cls-1" d="M352.85,189.96c-.39.93-.86,1.57-1.4,2.34.03-.05.07-.09.1-.13.18-.24.37-.47.56-.71l1.85-2.35,5.35-6.82c3.93-5,7.85-10,11.84-14.95,7.5-9.3,15.1-18.52,22.61-27.8,6.85-8.47,13.52-17.13,20.59-25.41,4.08-4.79,8.56-9.58,11.47-15.21,2.03-3.92,3.42-8.26,2.34-12.69-1.17-4.81-5.33-8.38-10.09-9.4-2.8-.61-5.69-.61-8.54-.69-3.05-.09-6.1-.16-9.16-.22-5.99-.11-11.99-.17-17.99-.19-12.01-.04-24.01.07-36.02.19-6,.06-12,.12-18,.16-2.94.02-5.88.04-8.82.05-3.52.01-7.05-.17-10.53.41-5.67.93-8.99,4.77-12.31,8.88-6.82,8.43-13.63,16.85-20.45,25.28-1.73,2.14-3.37,4.44-5.25,6.46-.87.94-1.99,1.86-3.05,2.56.06-.04,1.27-.95.45-.36-.28.2-.55.41-.82.62-.63.47-1.27.93-1.91,1.39-2.29,1.62-4.65,3.16-7.07,4.59-2.19,1.29-4.42,2.5-6.7,3.62-1.05.51-2.11,1.01-3.18,1.48-.26.12-.53.23-.79.34-.91.41.88-.37.84-.35-.7.24-1.39.56-2.08.83-4.18,1.61-8.49,2.9-12.87,3.83-.96.21-1.93.4-2.9.57-.79.14-2.42.07-3.09.49-.08.05,2.15-.26,1.22-.17-.23.02-.46.06-.7.08-.46.05-.92.1-1.38.15-1.05.1-2.11.19-3.16.26-3.5.22-7.02.21-10.52-.01-1.65-.11-3.3-.26-4.94-.46s.5.26.95.13c-.26.07-.78-.11-1.05-.15-.73-.11-1.47-.24-2.2-.37-4.43-.8-8.81-1.95-13.03-3.51-.66-.24-1.31-.51-1.96-.77-1.34-.53,2.55,1.11,1.35.57-.19-.09-.39-.17-.58-.26-1.73-.79-3.5-1.48-5.26-2.19s1.56.68.19.09c-.44-.19-.88-.38-1.31-.58-.96-.43-1.92-.87-2.87-1.33-1.88-.9-3.74-1.85-5.58-2.84-3.94-2.11-7.79-4.4-11.56-6.79s-7.81-5.13-11.61-7.85c-1.97-1.41-3.93-2.84-5.86-4.3-.9-.67-1.79-1.35-2.68-2.04-1.31-1,1.35,1.05.04.04-.52-.4-1.03-.8-1.55-1.21-13.73-10.78-26.76-22.44-39.3-34.58-3.47-3.36-6.68-6.88-11.48-8.29-5.87-1.73-12.02.06-16.57,3.93-4.29,3.65-5.72,9.06-5.72,14.46v58.51c0,9.05,0,18.1,0,27.16,0,1.63-.08,3.28.04,4.9.48,6.37,3.92,12.01,9.71,14.9,1.31.65,2.61,1.32,3.89,2.02,3.38,1.84,6.68,3.85,9.87,6,1.91,1.29,3.77,2.64,5.62,4.02,1.12.84-.66-.5-.92-.71.22.18.46.35.68.53.5.39.99.79,1.48,1.19,1.01.82,2,1.66,2.98,2.51,4.13,3.6,8,7.5,11.52,11.7.44.52.87,1.05,1.29,1.58.21.27.42.54.64.8,1.04,1.31-1.21-1.61-.46-.6.9,1.22,1.8,2.43,2.65,3.68,1.72,2.52,3.32,5.12,4.77,7.81.73,1.35,1.43,2.73,2.08,4.12.32.68.63,1.36.93,2.05.06.14.18.56.3.69s-.86-2.09-.54-1.28c.16.41.34.82.5,1.24,1.22,3.09,2.26,6.26,3.09,9.47.43,1.64.8,3.29,1.13,4.95.16.81.31,1.63.44,2.45.08.48.15.97.23,1.45.29,1.86-.22-1.9-.07-.5.42,3.73.67,7.47.66,11.22-.02,4.07-.42,8.07-.82,12.11-.01.14.31-2.16.15-1.16-.04.25-.07.5-.11.75-.07.5-.15,1-.23,1.5-.18,1.1-.37,2.2-.59,3.3-.44,2.27-.95,4.53-1.52,6.77s-1.21,4.51-1.91,6.74c-.35,1.11-.71,2.21-1.08,3.31-.18.53-.5,1.13-.58,1.68.21-1.43.65-1.42.2-.65-.75,1.26.61-.7.78-.9-.98,1.25-1.96,2.5-2.95,3.75-9.77,12.44-19.73,24.72-29.67,37.02-7.6,9.39-15.19,18.78-22.79,28.17-2.71,3.35-5.45,6.59-8.44,9.7s-5.71,5.96-8.26,9.22c-2.95,3.77-5.98,7.93-6.9,12.75-.59,3.08-.7,6.13,1,8.92,1.08,1.77,2.71,3.29,4.58,4.19,6.13,2.94,13.6,2.68,20.25,2.56,5.72-.1,11.42-.45,17.14-.45h73.52c5.71,0,11.29-1.59,15.06-6.19,6.05-7.4,12.02-14.86,18.03-22.29,2.84-3.51,5.68-7.03,8.53-10.54.6-.74,1.17-1.52,1.84-2.19.46-.46.97-.86,1.47-1.27.26-.21,1.88-1.5,1.01-.81s.75-.55,1.01-.74c.72-.53,1.45-1.05,2.19-1.57,2.21-1.54,4.47-3,6.79-4.36s4.59-2.58,6.96-3.72c1.05-.5,2.11-.98,3.17-1.45,1.54-.68-1.6.64-.05.02.61-.24,1.21-.48,1.82-.72,4.18-1.59,8.48-2.86,12.85-3.79.96-.2,1.93-.39,2.9-.56.48-.08.95-.16,1.43-.24.74-.12,2.99-.29-.04-.01,1.9-.17,3.79-.42,5.7-.53,3.56-.21,7.14-.19,10.69.05,1.58.11,3.15.27,4.72.46,1.87.22-2.13-.32-.78-.1.35.06.7.1,1.04.16.73.12,1.46.24,2.18.37,2.5.46,4.99,1.04,7.44,1.74,1.83.52,3.65,1.11,5.44,1.78.62.23,1.24.48,1.86.73,1.09.43-2.7-1.19-1.31-.55.18.08.37.16.56.25,1.84.85,3.73,1.6,5.62,2.33.9.35-1.2-.51-1.06-.45.22.1.44.19.66.28.44.19.88.38,1.32.58.96.43,1.92.88,2.87,1.34,1.96.94,3.9,1.94,5.81,2.97,8.06,4.35,15.74,9.39,23.17,14.72,1.89,1.36,3.77,2.74,5.63,4.14.97.73,1.92,1.49,2.9,2.21.04.03-1.49-1.16-.71-.55.22.17.44.34.66.52.52.4,1.03.81,1.55,1.21,3.71,2.92,7.37,5.91,10.99,8.96,6.75,5.69,13.35,11.58,19.81,17.6,2.82,2.63,5.61,5.28,8.37,7.96,3.43,3.32,6.72,6.92,11.56,8.1,11.12,2.7,21.7-5.65,21.91-17.01.11-5.73,0-11.47,0-17.2,0-11.43,0-22.85,0-34.28s0-20.66,0-30.98v-7.85c0-7.06-3.38-13.46-9.81-16.68-6.84-3.42-13.29-7.5-19.41-12.09-1.15-.86,1.38,1.08.92.71-.26-.21-.53-.41-.79-.62-.5-.39-.99-.79-1.48-1.19-.97-.79-1.93-1.6-2.87-2.42-2.01-1.76-3.96-3.59-5.84-5.49-1.97-2-3.87-4.08-5.67-6.23-.47-.56-.94-1.14-1.4-1.71-.21-.27-.42-.54-.64-.81-.56-.69,1.09,1.31.88,1.14-.16-.13-.29-.38-.42-.55-.87-1.17-1.72-2.34-2.54-3.54-1.72-2.52-3.31-5.13-4.76-7.82-.76-1.41-1.48-2.84-2.16-4.29-.32-.68-.62-1.37-.92-2.05-.58-1.3.85,2.08.32.76-.17-.41-.34-.82-.5-1.24-1.22-3.09-2.25-6.26-3.08-9.48-.44-1.71-.83-3.43-1.16-5.16-.16-.82-.3-1.63-.43-2.46-.07-.41-.13-.83-.19-1.25-.21-1.38.29,2.38.07.5-.86-7.44-.82-14.92.07-22.36.03-.25.07-.49.09-.74.01-.14-.3,2.16-.16,1.16.07-.5.14-1,.22-1.49.17-1.1.35-2.19.56-3.28.39-2.08.83-4.15,1.33-6.21,1.11-4.6,2.5-9.13,4.09-13.6,1.58-4.44-1.78-10.05-6.29-11.07-5.04-1.15-9.38,1.53-11.07,6.29-5.8,16.33-8.97,34.19-6.81,51.51,1.77,14.23,6.39,27.84,14.26,39.88,6.36,9.74,14.33,18.41,23.43,25.65,6.77,5.39,13.92,10.26,21.62,14.25.62.32,1.24.63,1.86.94.13.07.26.13.39.19.21.11.45.29.67.37.76.28-.73-.6-.8-.68.23.3.74.83,1.06,1.05-.06-.04-1-1.58-.68-.82.12.29.65,1.39.11.02-.57-1.44-.03.22.08.57.25.73-.07-2.12-.14-.63,0,.03,0,.06,0,.09,0,.2,0,.39,0,.59,0,2.43,0,4.85,0,7.28,0,10.03,0,20.06,0,30.09s0,22.77,0,34.15c0,6.28.05,12.57,0,18.85,0,.09,0,.19,0,.28,0,.22-.03.45-.03.67.03.88.06-1.4.18-1.32.03.02-.27,1.19-.33,1.2-.2.02,1.02-1.91.51-1.23-.1.14-.21.36-.29.52-.13.28-.71.96.26-.26s.34-.4.09-.16c-.3.28-1.39,1.2-.09.2s.14-.18-.21.04c-.03.02-.51.26-.51.26-.03-.12,1.99-.67,1.26-.55-.12.02-1.28.29-1.3.34.03-.09,2.15-.13,1.44-.21-.18-.02-.39.02-.58.02s-.4-.04-.58-.02c-.74.06,1.42.09,1.43.2,0-.06-1.16-.21-1.15-.31.02-.16,1.89,1,1.22.51-.21-.15-.5-.28-.72-.4-1.61-.88,1.21,1.2.29.2-.27-.29-.56-.55-.84-.83-.63-.62-1.26-1.23-1.89-1.85-1.29-1.25-2.58-2.5-3.88-3.74-2.85-2.72-5.72-5.42-8.62-8.08-13.92-12.79-28.48-25-43.97-35.85-7.35-5.15-14.94-9.98-22.92-14.1-4.14-2.14-8.39-4.04-12.72-5.76-.44-.18-2.1-.86-.22-.05,3.58,1.55,1.06.5.84.36-.06-.03-.12-.06-.18-.09-.27-.13-.55-.26-.82-.38-9.4-4.17-19.41-6.38-29.67-7.11-17.94-1.27-36,3.18-51.76,11.71-4.76,2.58-9.28,5.55-13.58,8.84-2.32,1.77-4.78,3.44-6.62,5.72-2.45,3.03-4.91,6.06-7.36,9.09-6.39,7.9-12.79,15.81-19.18,23.71-.62.76-1.72,1.69-2.2,2.47.08-.13,1.49-.9.72-.63-.16.06-.58.26-.71.38.1-.1,1.72-.51.9-.43-.17.02-.64.11-.78.2.46-.29,1.92-.13.69-.16-.35-.01-.7,0-1.05,0h-12.36c-9.55,0-19.1,0-28.65,0-15.83,0-31.65-.1-47.48.39-3.13.1-6.26.15-9.39.04-1.43-.05-2.86-.15-4.29-.28s.79.07,1.17.17c-.27-.07-.57-.08-.85-.13-.55-.1-1.1-.21-1.63-.36-.22-.06-.43-.15-.64-.2-1.2-.3,1.85.82,1.41.61-.18-.09-.36-.18-.52-.3-.34-.25,2.02,1.65,1.52,1.17-.29-.28-.61-.74.48.66.8,1.03,1.31,2.09,1.52,3.69.32,2.49.32-.52.04,1.45-.25,1.79-.04.38.07-.04s.26-.84.39-1.27c.42-1.33-.97,1.94-.28.67.2-.37.38-.76.59-1.13.47-.85,1-1.67,1.56-2.47.27-.39.56-.76.83-1.15.55-.78-.75.96-.67.86.16-.18.3-.38.46-.57.68-.84,1.38-1.66,2.09-2.47,2.69-3.05,5.59-5.9,8.35-8.88,3.38-3.67,6.39-7.7,9.53-11.58,7.51-9.28,15.02-18.57,22.53-27.85,9.11-11.26,18.19-22.54,27.14-33.94,2.01-2.56,3.94-4.97,5.16-8.05,1.73-4.37,3-9,4.11-13.56,2.11-8.71,3.38-17.76,3.42-26.73.06-15.02-3.46-29.8-10.27-43.16-5.5-10.77-13.3-20.52-22.21-28.66-7.09-6.48-14.96-12.22-23.3-16.98-1.38-.79-2.77-1.54-4.18-2.27-.59-.31-1.19-.61-1.79-.91-.48-.24-1.9-1.22-.84-.32,1.16.98-.12-.23-.38-.45-.64-.56.64.81.65.85-.04-.17-.37-.74-.5-.85.03.03.61,1.85.43,1.01-.07-.31-.16-.66-.26-.96-.25-.73.07,2.12.14.63,0-.03,0-.06,0-.09,0-.2,0-.39,0-.59,0-.9,0-1.8,0-2.7,0-8.63,0-17.26,0-25.9v-59.56c0-.73,0-1.46,0-2.19,0-.1,0-.2,0-.31,0-.22.03-.45.03-.67-.03-.88-.06,1.4-.18,1.32-.03-.02.27-1.19.33-1.2.2-.02-1.02,1.91-.51,1.23.1-.14.21-.36.29-.52.13-.28.71-.96-.26.26s-.34.4-.09.16c.3-.28,1.39-1.2.09-.2s-.14.18.21-.04c.03-.02.51-.26.51-.26.03.12-1.99.67-1.26.55.12-.02,1.28-.29,1.3-.34-.03.09-2.15.13-1.44.21.18.02.39-.02.58-.02s.4.04.58.02c.74-.06-1.42-.09-1.43-.2,0,.06,1.16.21,1.15.31-.02.16-1.89-1-1.22-.51.21.15.5.28.72.4.11.06.48.24.53.35.1.22-1.58-1.49-.98-.7.23.31.59.57.86.84.63.62,1.25,1.23,1.88,1.84,1.34,1.3,2.68,2.6,4.03,3.89,13.1,12.52,26.75,24.43,41.11,35.48,14.55,11.2,29.98,21.52,47.12,28.31.44.18,2.1.86.22.05-3.58-1.55-1.06-.5-.84-.36.06.03.12.06.18.09.27.13.55.26.82.38,1.8.8,3.62,1.56,5.47,2.24,4.19,1.53,8.54,2.66,12.93,3.44,16,2.86,32.6,1.86,47.97-3.61,10.3-3.67,19.94-8.88,28.63-15.51,2.32-1.77,4.78-3.44,6.62-5.72l2.86-3.54c6.76-8.36,13.53-16.72,20.29-25.09l3.38-4.18c.62-.76,1.72-1.69,2.2-2.47-.08.13-1.49.9-.72.63.17-.06.58-.26.71-.38-.1.1-1.72.51-.89.43.17-.02.64-.11.79-.2-.11.07-1.9.05-1.04.17.3.04.67,0,.98,0,.82,0,1.64,0,2.47,0,2.94,0,5.88-.02,8.81-.03,6-.04,12-.09,18-.15,23.61-.23,47.32-.79,70.91.31.16,0,1.13.17,1.21.08-.25.27-2.55-.54-1-.09.14.04.75.31.88.26.06-.02-2.03-.88-1.53-.63.08.04.49.33.54.32-.19.05-2.01-1.79-1.14-.81-.08-.09-1.51-2.25-.94-1.12-.04-.09-.95-2.62-.63-1.36.26,1.01-.32-2.82-.22-1.4.03.42-.16,1.57.09-.36s.12-.74-.01-.32c-.08.26-.15.53-.24.79-.51,1.51.04-.63.42-.92-.35.26-.64,1.31-.86,1.71-.36.65-.75,1.29-1.15,1.91-.79,1.23-1.95,2.4-2.62,3.69.27-.53,1.41-1.81.51-.67-.22.28-.45.56-.67.84-.47.58-.95,1.16-1.44,1.74-1.76,2.09-3.55,4.15-5.27,6.28-14.86,18.37-29.91,36.59-44.63,55.07-3.16,3.96-6.28,7.96-9.41,11.94l-4.9,6.25c-.47.6-.94,1.19-1.4,1.79-1.52,1.94-2.52,3.64-3.48,5.93-.84,1.99-.13,5.17.91,6.94,1.09,1.87,3.23,3.65,5.38,4.14,2.3.52,4.89.41,6.94-.91s3.17-3.09,4.14-5.38Z"/>
  <path class="cls-1" d="M254.1,243.02c0,1.04-.07,2.07-.2,3.1l.32-2.39c-.29,2.11-.85,4.15-1.67,6.11l.91-2.15c-.79,1.81-1.78,3.5-2.97,5.07l1.41-1.82c-1.27,1.63-2.72,3.08-4.35,4.35l1.82-1.41c-1.57,1.19-3.26,2.18-5.07,2.97l2.15-.91c-1.97.82-4,1.38-6.11,1.67l2.39-.32c-2.07.26-4.14.26-6.2,0l2.39.32c-2.11-.29-4.15-.85-6.11-1.67l2.15.91c-1.81-.79-3.5-1.78-5.07-2.97l1.82,1.41c-1.63-1.27-3.08-2.72-4.35-4.35l1.41,1.82c-1.19-1.57-2.18-3.26-2.97-5.07l.91,2.15c-.82-1.97-1.38-4-1.67-6.11l.32,2.39c-.26-2.07-.26-4.14,0-6.2l-.32,2.39c.29-2.11.85-4.15,1.67-6.11l-.91,2.15c.79-1.81,1.78-3.5,2.97-5.07l-1.41,1.82c1.27-1.63,2.72-3.08,4.35-4.35l-1.82,1.41c1.57-1.19,3.26-2.18,5.07-2.97l-2.15.91c1.97-.82,4-1.38,6.11-1.67l-2.39.32c2.07-.26,4.14-.26,6.2,0l-2.39-.32c2.11.29,4.15.85,6.11,1.67l-2.15-.91c1.81.79,3.5,1.78,5.07,2.97l-1.82-1.41c1.63,1.27,3.08,2.72,4.35,4.35l-1.41-1.82c1.19,1.57,2.18,3.26,2.97,5.07l-.91-2.15c.82,1.97,1.38,4,1.67,6.11l-.32-2.39c.13,1.03.2,2.06.2,3.1.03,4.71,4.12,9.22,9,9s9.04-3.96,9-9c-.05-6.4-1.9-13.09-5.68-18.3-2.34-3.22-4.8-5.72-7.97-8.1-2.56-1.92-5.44-3.27-8.45-4.36-12-4.34-26.91-.32-34.98,9.61-2.53,3.12-4.31,6.13-5.81,9.85-1.21,3-1.74,6.18-1.99,9.4-.51,6.36,1.23,13.14,4.52,18.58,3.22,5.33,8.11,10.01,13.82,12.57,3.7,1.66,7.1,2.58,11.13,3.06,3.27.39,6.54.06,9.77-.56,6.62-1.26,13.24-5.16,17.56-10.33,5.1-6.1,8.03-13.4,8.09-21.41.03-4.71-4.16-9.22-9-9s-8.96,3.95-9,9Z"/>
</svg>