<?xml version="1.0" encoding="UTF-8"?>
<svg id="_Слой_1" data-name="Слой 1" xmlns="http://www.w3.org/2000/svg" viewBox="0 0 480.42 480.42">
  <defs>
    <style>
      .cls-1 {
        fill: #fff;
        stroke-width: 0px;
      }
    </style>
  </defs>
  <g>
    <path class="cls-1" d="M224.58,264.08c4.88,1.58,10.83-1.85,11.67-6.97.21-1.26.35-2.54.51-3.81.2-1.53.38-3.06.54-4.6.49-4.66.82-9.33.98-14.01.19-5.73.13-11.48-.35-17.19-.54-6.42-1.42-12.94-3.36-19.1s-4.78-12-9.27-16.61c-2.21-2.28-4.92-4.12-7.46-6-2.32-1.71-4.69-3.36-7.09-4.96-11.03-7.38-22.55-14.02-34.08-20.58-5.04-2.87-10.09-5.71-15.12-8.59-3.33-1.91-6.7-3.8-9.89-5.93-.46-.31-.91-.62-1.35-.96l1.82,1.41c-.31-.24-.63-.49-.88-.8l1.41,1.82c-.05-.06-.08-.14-.13-.2-.95-1.28-1.84-2.42-3.24-3.24-1.77-1.04-3.73-1.35-5.75-1.07-3.68.49-6.57,3.06-7.58,6.62-.41,1.44-.49,3-.66,4.47-.41,3.44-.53,6.91-.57,10.37-.14,12.22,1.07,24.72,4.23,36.54,1.82,6.79,4.39,13.53,7.93,19.61,3.57,6.13,8.35,11.52,13.64,16.22,10.72,9.54,23.12,17.04,35.81,23.63,5.07,2.63,10.22,5.12,15.38,7.57,3.21,1.52,6.52,2.94,9.58,4.73.37.21.73.44,1.07.7l-1.82-1.41.05.04c1.96,1.54,3.77,2.64,6.36,2.64,2.21,0,4.84-.98,6.36-2.64s2.74-3.97,2.64-6.36c-.1-2.22-.81-4.92-2.64-6.36-4.69-3.69-10.41-5.85-15.75-8.41-8.64-4.13-17.19-8.47-25.4-13.4-5.19-3.11-10.25-6.46-15.05-10.15l1.82,1.41c-5.2-4.02-10.21-8.47-14.27-13.67l1.41,1.82c-2.95-3.83-5.28-8.07-7.16-12.51l.91,2.15c-3.2-7.66-5.09-15.81-6.2-24.02l.32,2.39c-1.21-9.06-1.58-18.3-.96-27.43.09-1.37.21-2.74.39-4.1l-.32,2.39c.07-.5.1-1.06.3-1.53l-.91,2.15s.02-.03.03-.05l-1.41,1.82s0-.01.02-.02l-1.82,1.41h0c-.72.3-1.43.6-2.15.9h0c-1.6,0-3.19,0-4.79,0h0c-.72-.3-1.43-.6-2.15-.91h0c-.61-.46-1.21-.93-1.82-1.4h0c-.47-.6-.94-1.21-1.41-1.81,2.01,3.1,5.2,5.02,8.29,6.91,4.18,2.55,8.45,4.95,12.71,7.36,11.86,6.73,23.75,13.41,35.32,20.64,6.03,3.76,12,7.66,17.63,12l-1.82-1.41c1.91,1.48,3.67,3,5.16,4.92l-1.41-1.82c1.55,2.05,2.78,4.31,3.79,6.67l-.91-2.15c2.1,5,3.25,10.35,3.97,15.72l-.32-2.39c1.55,11.79,1.17,23.84-.03,35.64-.19,1.9-.41,3.8-.67,5.69l.32-2.39c-.06.44-.12.89-.19,1.33l.91-2.15-.11.21,5.38-4.14-.21.08h4.79l-.22-.07c-4.48-1.45-10.02,1.69-11.07,6.29-1.12,4.93,1.49,9.52,6.29,11.07Z"/>
    <path class="cls-1" d="M224.58,359.13c4.88,1.58,10.83-1.85,11.67-6.97.21-1.26.35-2.54.51-3.81.2-1.53.38-3.06.54-4.6.49-4.66.82-9.33.98-14.01.19-5.73.13-11.48-.35-17.19-.54-6.42-1.42-12.94-3.36-19.1s-4.78-12-9.27-16.61c-2.21-2.28-4.92-4.12-7.46-6-2.32-1.71-4.69-3.36-7.09-4.96-11.03-7.38-22.55-14.02-34.08-20.58-5.04-2.87-10.09-5.71-15.12-8.59-3.33-1.91-6.7-3.8-9.89-5.93-.46-.31-.91-.62-1.35-.96l1.82,1.41c-.31-.24-.63-.49-.88-.8l1.41,1.82c-.05-.06-.08-.14-.13-.2-.95-1.28-1.84-2.42-3.24-3.24-1.77-1.04-3.73-1.35-5.75-1.07-3.68.49-6.57,3.06-7.58,6.62-.41,1.44-.49,3-.66,4.47-.41,3.44-.53,6.91-.57,10.37-.14,12.22,1.07,24.72,4.23,36.54,1.82,6.79,4.39,13.53,7.93,19.61s8.35,11.52,13.64,16.22c10.72,9.54,23.12,17.04,35.81,23.63,5.07,2.63,10.22,5.12,15.38,7.57,3.21,1.52,6.52,2.94,9.58,4.73.37.21.73.44,1.07.7l-1.82-1.41.05.04c1.96,1.54,3.77,2.64,6.36,2.64,2.21,0,4.84-.98,6.36-2.64s2.74-3.97,2.64-6.36c-.1-2.22-.81-4.92-2.64-6.36-4.69-3.69-10.41-5.85-15.75-8.41-8.64-4.13-17.19-8.47-25.4-13.4-5.19-3.11-10.25-6.46-15.05-10.15l1.82,1.41c-5.2-4.02-10.21-8.47-14.27-13.67l1.41,1.82c-2.95-3.83-5.28-8.07-7.16-12.51l.91,2.15c-3.2-7.66-5.09-15.81-6.2-24.02l.32,2.39c-1.21-9.06-1.58-18.3-.96-27.43.09-1.37.21-2.74.39-4.1l-.32,2.39c.07-.5.1-1.06.3-1.53l-.91,2.15s.02-.03.03-.05l-1.41,1.82s0-.01.02-.02l-1.82,1.41h0c-.72.3-1.43.6-2.15.9h0c-1.6,0-3.19,0-4.79,0h0c-.72-.3-1.43-.6-2.15-.91h0c-.61-.46-1.21-.93-1.82-1.4h0c-.47-.6-.94-1.21-1.41-1.81,2.01,3.1,5.2,5.02,8.29,6.91,4.18,2.55,8.45,4.95,12.71,7.36,11.86,6.73,23.75,13.41,35.32,20.64,6.03,3.76,12,7.66,17.63,12l-1.82-1.41c1.91,1.48,3.67,3,5.16,4.92l-1.41-1.82c1.55,2.05,2.78,4.31,3.79,6.67l-.91-2.15c2.1,5,3.25,10.35,3.97,15.72l-.32-2.39c1.55,11.79,1.17,23.84-.03,35.64-.19,1.9-.41,3.8-.67,5.69l.32-2.39c-.06.44-.12.89-.19,1.33l.91-2.15-.11.21,5.38-4.14-.21.08h4.79l-.22-.07c-4.48-1.45-10.02,1.69-11.07,6.29-1.12,4.93,1.49,9.52,6.29,11.07Z"/>
    <path class="cls-1" d="M224.58,454.18c4.88,1.58,10.83-1.85,11.67-6.97.21-1.26.35-2.54.51-3.81.2-1.53.38-3.06.54-4.6.49-4.66.82-9.33.98-14.01.19-5.73.13-11.48-.35-17.19-.54-6.42-1.42-12.94-3.36-19.1-1.92-6.08-4.78-12-9.27-16.61-2.21-2.28-4.92-4.12-7.46-6-2.32-1.71-4.69-3.36-7.09-4.96-11.03-7.38-22.55-14.02-34.08-20.58-5.04-2.87-10.09-5.71-15.12-8.59-3.33-1.91-6.7-3.8-9.89-5.93-.46-.31-.91-.62-1.35-.96l1.82,1.41c-.31-.24-.63-.49-.88-.8l1.41,1.82c-.05-.06-.08-.14-.13-.2-.95-1.28-1.84-2.42-3.24-3.24-1.77-1.04-3.73-1.35-5.75-1.07-3.68.49-6.57,3.06-7.58,6.62-.41,1.44-.49,3-.66,4.47-.41,3.44-.53,6.91-.57,10.37-.14,12.22,1.07,24.72,4.23,36.54,1.82,6.79,4.39,13.53,7.93,19.61,3.57,6.13,8.35,11.52,13.64,16.22,10.72,9.54,23.12,17.04,35.81,23.63,5.07,2.63,10.22,5.12,15.38,7.57,3.21,1.52,6.52,2.94,9.58,4.73.37.21.73.44,1.07.7l-1.82-1.41.05.04c1.96,1.54,3.77,2.64,6.36,2.64,2.21,0,4.84-.98,6.36-2.64s2.74-3.97,2.64-6.36c-.1-2.22-.81-4.92-2.64-6.36-4.69-3.69-10.41-5.85-15.75-8.41-8.64-4.13-17.19-8.47-25.4-13.4-5.19-3.11-10.25-6.46-15.05-10.15l1.82,1.41c-5.2-4.02-10.21-8.47-14.27-13.67l1.41,1.82c-2.95-3.83-5.28-8.07-7.16-12.51l.91,2.15c-3.2-7.66-5.09-15.81-6.2-24.02l.32,2.39c-1.21-9.06-1.58-18.3-.96-27.43.09-1.37.21-2.74.39-4.1l-.32,2.39c.07-.5.1-1.06.3-1.53l-.91,2.15s.02-.03.03-.05l-1.41,1.82s0-.01.02-.02l-1.82,1.41h0c-.72.3-1.43.6-2.15.9h0c-1.6,0-3.19,0-4.79,0h0c-.72-.3-1.43-.6-2.15-.91h0c-.61-.46-1.21-.93-1.82-1.4h0c-.47-.6-.94-1.21-1.41-1.81,2.01,3.1,5.2,5.02,8.29,6.91,4.18,2.55,8.45,4.95,12.71,7.36,11.86,6.73,23.75,13.41,35.32,20.64,6.03,3.76,12,7.66,17.63,12l-1.82-1.41c1.91,1.48,3.67,3,5.16,4.92l-1.41-1.82c1.55,2.05,2.78,4.31,3.79,6.67l-.91-2.15c2.1,5,3.25,10.35,3.97,15.72l-.32-2.39c1.55,11.79,1.17,23.84-.03,35.64-.19,1.9-.41,3.8-.67,5.69l.32-2.39c-.06.44-.12.89-.19,1.33l.91-2.15-.11.21,5.38-4.14-.21.08h4.79l-.22-.07c-4.48-1.45-10.02,1.69-11.07,6.29-1.12,4.93,1.49,9.52,6.29,11.07Z"/>
  </g>
  <g>
    <path class="cls-1" d="M251.06,246.72l-.22.07h4.79l-.21-.08,5.38,4.14-.11-.21.91,2.15c-.06-.44-.13-.89-.19-1.33l.32,2.39c-1.34-9.98-1.95-20.12-1.6-30.19.13-3.72.41-7.44.9-11.14l-.32,2.39c.72-5.36,1.87-10.71,3.97-15.72l-.91,2.15c1.01-2.36,2.24-4.62,3.79-6.67l-1.41,1.82c1.49-1.92,3.25-3.44,5.16-4.92l-1.82,1.41c10.5-8.1,22.05-14.86,33.49-21.52,10.27-5.98,20.74-11.63,30.94-17.74,3.48-2.08,7.27-4.17,9.52-7.65l-1.41,1.82h0c-.61.46-1.21.93-1.82,1.4h0c-.72.3-1.43.6-2.15.9h0c-1.6,0-3.19,0-4.79,0h0c-.72-.3-1.43-.6-2.15-.91h0c-.61-.46-1.21-.93-1.82-1.4,0,0,.01.01.02.02l-1.41-1.82s.02.03.03.05l-.91-2.15c.2.47.23,1.03.3,1.53l-.32-2.39c.98,7.33.83,14.92.35,22.28-.2,3.09-.51,6.17-.92,9.24l.32-2.39c-1.12,8.21-3,16.36-6.2,24.02l.91-2.15c-1.88,4.44-4.21,8.68-7.16,12.51l1.41-1.82c-4.06,5.2-9.07,9.64-14.27,13.67l1.82-1.41c-14.84,11.41-31.79,19.32-48.55,27.41-2.76,1.33-5.23,2.65-7.65,4.55-1.69,1.33-2.64,4.33-2.64,6.36,0,2.21.98,4.84,2.64,6.36s3.97,2.74,6.36,2.64l2.39-.32c1.52-.43,2.85-1.2,3.97-2.31l.05-.04-1.82,1.41c2.25-1.71,5.12-2.8,7.65-4,4.73-2.25,9.47-4.48,14.15-6.83,12.76-6.4,25.08-13.59,36.22-22.56,5.66-4.55,10.78-9.67,14.99-15.61s6.91-12.31,9.07-18.94c3.9-11.96,5.39-24.86,5.57-37.4.06-4.05-.03-8.12-.38-12.16-.16-1.85-.38-3.72-.69-5.55-.71-4.14-4.62-7.75-8.94-7.56-1.64.07-3.12.39-4.55,1.23-1.54.9-2.22,1.87-3.24,3.24-.05.07-.08.14-.13.21l1.41-1.82c-.25.31-.57.56-.88.8l1.82-1.41c-2.57,1.97-5.47,3.54-8.25,5.17-4.69,2.73-9.42,5.38-14.13,8.06-11.5,6.52-22.99,13.08-34.1,20.24-5.48,3.53-10.81,7.26-15.93,11.3-4.99,3.95-8.08,9.32-10.47,15.11s-3.47,12.16-4.27,18.44c-.74,5.83-.97,11.71-.9,17.58.09,8.78.63,17.77,2.12,26.44.88,5.11,6.76,8.56,11.67,6.97,2.22-.72,4.18-2.09,5.38-4.14,1.13-1.93,1.61-4.77.91-6.94-1.45-4.47-6.28-7.84-11.07-6.29Z"/>
    <path class="cls-1" d="M251.06,341.77l-.22.07h4.79l-.21-.08,5.38,4.14-.11-.21.91,2.15c-.06-.44-.13-.89-.19-1.33l.32,2.39c-1.34-9.98-1.95-20.12-1.6-30.19.13-3.72.41-7.44.9-11.14l-.32,2.39c.72-5.36,1.87-10.71,3.97-15.72l-.91,2.15c1.01-2.36,2.24-4.62,3.79-6.67l-1.41,1.82c1.49-1.92,3.25-3.44,5.16-4.92l-1.82,1.41c10.5-8.1,22.05-14.86,33.49-21.52,10.27-5.98,20.74-11.63,30.94-17.74,3.48-2.08,7.27-4.17,9.52-7.65l-1.41,1.82h0c-.61.46-1.21.93-1.82,1.4h0c-.72.3-1.43.6-2.15.9h0c-1.6,0-3.19,0-4.79,0h0c-.72-.3-1.43-.6-2.15-.91h0c-.61-.46-1.21-.93-1.82-1.4,0,0,.01.01.02.02l-1.41-1.82s.02.03.03.05l-.91-2.15c.2.47.23,1.03.3,1.53l-.32-2.39c.98,7.33.83,14.92.35,22.28-.2,3.09-.51,6.17-.92,9.24l.32-2.39c-1.12,8.21-3,16.36-6.2,24.02l.91-2.15c-1.88,4.44-4.21,8.68-7.16,12.51l1.41-1.82c-4.06,5.2-9.07,9.64-14.27,13.67l1.82-1.41c-14.84,11.41-31.79,19.32-48.55,27.41-2.76,1.33-5.23,2.65-7.65,4.55-1.69,1.33-2.64,4.33-2.64,6.36,0,2.21.98,4.84,2.64,6.36s3.97,2.74,6.36,2.64l2.39-.32c1.52-.43,2.85-1.2,3.97-2.31l.05-.04-1.82,1.41c2.25-1.71,5.12-2.8,7.65-4,4.73-2.25,9.47-4.48,14.15-6.83,12.76-6.4,25.08-13.59,36.22-22.56,5.66-4.55,10.78-9.67,14.99-15.61s6.91-12.31,9.07-18.94c3.9-11.96,5.39-24.86,5.57-37.4.06-4.05-.03-8.12-.38-12.16-.16-1.85-.38-3.72-.69-5.55-.71-4.14-4.62-7.75-8.94-7.56-1.64.07-3.12.39-4.55,1.23-1.54.9-2.22,1.87-3.24,3.24-.05.07-.08.14-.13.21l1.41-1.82c-.25.31-.57.56-.88.8l1.82-1.41c-2.57,1.97-5.47,3.54-8.25,5.17-4.69,2.73-9.42,5.38-14.13,8.06-11.5,6.52-22.99,13.08-34.1,20.24-5.48,3.53-10.81,7.26-15.93,11.3s-8.08,9.32-10.47,15.11c-2.43,5.89-3.47,12.16-4.27,18.44-.74,5.83-.97,11.71-.9,17.58.09,8.78.63,17.77,2.12,26.44.88,5.11,6.76,8.56,11.67,6.97,2.22-.72,4.18-2.09,5.38-4.14,1.13-1.93,1.61-4.77.91-6.94-1.45-4.47-6.28-7.84-11.07-6.29Z"/>
    <path class="cls-1" d="M251.06,436.82l-.22.07h4.79l-.21-.08,5.38,4.14-.11-.21.91,2.15c-.06-.44-.13-.89-.19-1.33l.32,2.39c-1.34-9.98-1.95-20.12-1.6-30.19.13-3.72.41-7.44.9-11.14l-.32,2.39c.72-5.36,1.87-10.71,3.97-15.72l-.91,2.15c1.01-2.36,2.24-4.62,3.79-6.67l-1.41,1.82c1.49-1.92,3.25-3.44,5.16-4.92l-1.82,1.41c10.5-8.1,22.05-14.86,33.49-21.52,10.27-5.98,20.74-11.63,30.94-17.74,3.48-2.08,7.27-4.17,9.52-7.65l-1.41,1.82h0c-.61.46-1.21.93-1.82,1.4h0c-.72.3-1.43.6-2.15.9h0c-1.6,0-3.19,0-4.79,0h0c-.72-.3-1.43-.6-2.15-.91h0c-.61-.46-1.21-.93-1.82-1.4,0,0,.01.01.02.02l-1.41-1.82s.02.03.03.05l-.91-2.15c.2.47.23,1.03.3,1.53l-.32-2.39c.98,7.33.83,14.92.35,22.28-.2,3.09-.51,6.17-.92,9.24l.32-2.39c-1.12,8.21-3,16.36-6.2,24.02l.91-2.15c-1.88,4.44-4.21,8.68-7.16,12.51l1.41-1.82c-4.06,5.2-9.07,9.64-14.27,13.67l1.82-1.41c-14.84,11.41-31.79,19.32-48.55,27.41-2.76,1.33-5.23,2.65-7.65,4.55-1.69,1.33-2.64,4.33-2.64,6.36,0,2.21.98,4.84,2.64,6.36s3.97,2.74,6.36,2.64l2.39-.32c1.52-.43,2.85-1.2,3.97-2.31l.05-.04-1.82,1.41c2.25-1.71,5.12-2.8,7.65-4,4.73-2.25,9.47-4.48,14.15-6.83,12.76-6.4,25.08-13.59,36.22-22.56,5.66-4.55,10.78-9.67,14.99-15.61s6.91-12.31,9.07-18.94c3.9-11.96,5.39-24.86,5.57-37.4.06-4.05-.03-8.12-.38-12.16-.16-1.85-.38-3.72-.69-5.55-.71-4.14-4.62-7.75-8.94-7.56-1.64.07-3.12.39-4.55,1.23-1.54.9-2.22,1.87-3.24,3.24-.05.07-.08.14-.13.21l1.41-1.82c-.25.31-.57.56-.88.8l1.82-1.41c-2.57,1.97-5.47,3.54-8.25,5.17-4.69,2.73-9.42,5.38-14.13,8.06-11.5,6.52-22.99,13.08-34.1,20.24-5.48,3.53-10.81,7.26-15.93,11.3s-8.08,9.32-10.47,15.11c-2.43,5.89-3.47,12.16-4.27,18.44-.74,5.83-.97,11.71-.9,17.58.09,8.78.63,17.77,2.12,26.44.88,5.11,6.76,8.56,11.67,6.97,2.22-.72,4.18-2.09,5.38-4.14,1.13-1.93,1.61-4.77.91-6.94-1.45-4.47-6.28-7.84-11.07-6.29Z"/>
  </g>
  <path class="cls-1" d="M246.89,166.99c-4.46-4.46-8.52-9.37-12.37-14.35l1.41,1.82c-6.9-8.93-13.11-18.53-17.52-28.95l.91,2.15c-2.23-5.34-3.96-10.9-4.74-16.64l.32,2.39c-.93-7.26-.07-14.78.89-21.99l-.32,2.39c1.5-11.12,4.08-22.22,8.43-32.59l-.91,2.15c2.06-4.85,4.53-9.56,7.74-13.76l-1.41,1.82c1.72-2.21,3.64-4.25,5.85-5.97l-1.82,1.41c1.46-1.11,3.02-2.06,4.71-2.8l-2.15.91c1.5-.63,3.05-1.07,4.67-1.3l-2.39.32c1.58-.2,3.16-.2,4.74,0l-2.39-.32c1.56.22,3.06.63,4.52,1.23l-2.15-.91c1.7.72,3.27,1.67,4.74,2.79l-1.82-1.41c2.07,1.62,3.87,3.52,5.48,5.59l-1.41-1.82c3.1,4.04,5.46,8.58,7.43,13.25l-.91-2.15c4.83,11.57,7.47,24.02,9.16,36.41l-.32-2.39c.74,5.53,1.79,11.33,1.07,16.9l.32-2.39c-.91,6.73-3.26,13.26-5.88,19.49l.91-2.15c-4.55,10.75-10.44,20.99-17.56,30.24l1.41-1.82c-3.44,4.44-7.19,8.65-11.35,12.43-3.49,3.18-3.47,9.55,0,12.73,3.73,3.43,9,3.39,12.73,0,5.33-4.84,9.92-10.38,14.2-16.16,3.96-5.34,7.49-11,10.62-16.86,3.19-5.96,5.98-12.16,8.33-18.5,1.68-4.52,3.14-9.19,3.86-13.98.36-2.43.76-4.92.65-7.38-.14-3.14-.53-6.29-.91-9.41-.89-7.41-2.03-14.79-3.69-22.07-1.44-6.28-3.23-12.5-5.62-18.48-2.33-5.81-4.94-11.56-8.74-16.57-3.56-4.69-7.72-9.17-13.19-11.65-5.96-2.7-12.37-3.59-18.78-1.9-11.56,3.06-19.57,13.55-24.53,23.84-5.79,12.02-9.18,25.06-10.97,38.25-.92,6.76-1.88,13.72-1.58,20.56.28,6.44,1.64,12.86,3.81,18.92,4.16,11.61,10.43,22.3,17.74,32.19,4.74,6.41,9.78,12.66,15.31,18.42.25.26.51.53.76.78,3.33,3.34,9.44,3.58,12.73,0s3.56-9.17,0-12.73Z"/>
</svg>